<?xml version="1.0" encoding="UTF-8" standalone="no"?>
<!-- Created with Inkscape (http://www.inkscape.org/) -->

<svg
   xmlns:dc="http://purl.org/dc/elements/1.1/"
   xmlns:cc="http://creativecommons.org/ns#"
   xmlns:rdf="http://www.w3.org/1999/02/22-rdf-syntax-ns#"
   xmlns:svg="http://www.w3.org/2000/svg"
   xmlns="http://www.w3.org/2000/svg"
   xmlns:sodipodi="http://sodipodi.sourceforge.net/DTD/sodipodi-0.dtd"
   xmlns:inkscape="http://www.inkscape.org/namespaces/inkscape"
   width="744.09448819"
   height="1052.3622047"
   id="svg2"
   version="1.1"
   inkscape:version="0.48.4 r9939"
   sodipodi:docname="test.svg">
  <defs
     id="defs4" />
  <sodipodi:namedview
     id="base"
     pagecolor="#ffffff"
     bordercolor="#666666"
     borderopacity="1.0"
     inkscape:pageopacity="0.0"
     inkscape:pageshadow="2"
     inkscape:zoom="0.49497475"
     inkscape:cx="-20.114273"
     inkscape:cy="593.28066"
     inkscape:document-units="px"
     inkscape:current-layer="g2990"
     showgrid="false"
     inkscape:window-width="1855"
     inkscape:window-height="1056"
     inkscape:window-x="65"
     inkscape:window-y="24"
     inkscape:window-maximized="1" />
  <metadata
     id="metadata7">
    <rdf:RDF>
      <cc:Work
         rdf:about="">
        <dc:format>image/svg+xml</dc:format>
        <dc:type
           rdf:resource="http://purl.org/dc/dcmitype/StillImage" />
        <dc:title />
      </cc:Work>
    </rdf:RDF>
  </metadata>
  <g
     inkscape:label="Layer 1"
     inkscape:groupmode="layer"
     id="layer1">
    <path
       style="fill:none;stroke:#000000;stroke-width:1px;stroke-linecap:butt;stroke-linejoin:miter;stroke-opacity:1"
       d="m 337.14286,218.07647 c -4.76191,0 -9.52381,0 -14.28572,0 -0.95238,0 -2.0053,-0.42592 -2.85714,0 -1.20468,0.60234 -1.90476,1.90476 -2.85714,2.85714 -0.95238,0.95238 -2.53048,1.55049 -2.85715,2.85714 -0.69295,2.77184 0.90351,5.86091 0,8.57143 -1.08588,3.25765 -4.43898,5.38317 -5.71428,8.57143 -0.70741,1.76853 0,3.80952 0,5.71429 0,1.90476 0,3.80952 0,5.71428 0,6.66667 0,13.33334 0,20 0,8.57143 0,17.14286 0,25.71429 0,1.90476 0,3.80952 0,5.71428 0,1.90477 -0.60234,3.90727 0,5.71429 1.62581,4.87745 8.40802,2.85714 11.42857,2.85714 2.85714,0 5.71429,0 8.57143,0 16.19047,0 32.38095,0 48.57143,0 6.66666,0 13.33333,0 20,0 1.90476,0 3.90727,0.60234 5.71428,0 1.27776,-0.42592 1.90476,-1.90476 2.85715,-2.85714 0.95238,-0.95238 2.43122,-1.57939 2.85714,-2.85714 0.52503,-1.57508 0,-14.71816 0,-17.14286 0,-8.57143 0,-17.14286 0,-25.71429 0,-5.71428 0,-11.42857 0,-17.14285 0,-1.90477 1.34687,-4.36742 0,-5.71429 -1.34687,-1.34687 -3.90727,0.60234 -5.71429,0 -1.27775,-0.42592 -1.57939,-2.43122 -2.85714,-2.85714 -1.53602,-0.51201 -9.00957,0 -11.42857,0 -8.57143,0 -17.14286,0 -25.71429,0 -1.49406,0 -10.67731,0.37563 -11.42857,0 -1.20468,-0.60234 -1.65246,-2.25481 -2.85714,-2.85714 -0.75126,-0.37564 -9.93451,0 -11.42857,0 -7.61905,0 -15.2381,0 -22.85715,0"
       id="path2989"
       inkscape:connector-curvature="0" />
    <g
       id="g2990">
      <g
         id="g2991">
        <path
           style="fill:none;stroke:#00ff00;stroke-width:1px;stroke-linecap:butt;stroke-linejoin:miter;stroke-opacity:1"
           d="m 142.85714,306.6479 c 0,68.04522 3.33828,12.8845 -20,108.57143 -3.67368,15.0621 -6.47668,30.35281 -8.57143,45.71428 -0.77207,5.66189 0,11.42857 0,17.14286 0,1.90476 -0.85183,4.01061 0,5.71428 0.42592,0.85184 1.91434,0.13469 2.85715,0 2.5185,-0.35978 27.7369,-4.48373 31.42857,-5.71428 4.04061,-1.34687 7.33327,-4.5442 11.42857,-5.71429 11.31198,-3.23199 5.56054,3.68674 14.28571,-2.85714 2.155,-1.61624 3.80953,-3.80952 5.71429,-5.71429 0.95238,-0.95238 2.11003,-1.73648 2.85714,-2.85714 1.18129,-1.77192 1.57939,-4.01061 2.85715,-5.71428 1.61624,-2.155 4.03152,-3.61083 5.71428,-5.71429 2.14512,-2.68139 3.65397,-5.82434 5.71429,-8.57143 10.33094,-13.77459 12.44972,-13.47088 20,-28.57143 2.29363,-4.58727 3.42065,-9.69844 5.71428,-14.28571 1.53567,-3.07134 3.80953,-5.71429 5.71429,-8.57143 1.90476,-2.85714 3.56917,-5.89004 5.71428,-8.57143 6.1321,-7.66511 6.0356,-4.82848 14.28572,-11.42857 2.10346,-1.68277 3.80952,-3.80952 5.71428,-5.71429 0.95239,-0.95238 1.57939,-2.43122 2.85715,-2.85714 2.71052,-0.90351 5.71428,0 8.57143,0 6.66666,0 13.33333,0 20,0 0.62172,0 8.50855,-0.25148 8.57142,0 0.92395,3.69578 0,7.61905 0,11.42857 0,10.47619 0,20.95238 0,31.42857 0,5.71429 0,11.42858 0,17.14286 0,2.85714 0.90351,5.86091 0,8.57143 -0.42591,1.27775 -2.2548,1.65247 -2.85714,2.85714 -1.34687,2.69374 -1.05013,6.16208 -2.85714,8.57143 -1.27775,1.70367 -4.43653,1.15347 -5.71429,2.85714 -1.80701,2.40936 -0.97575,6.2197 -2.85714,8.57143 -2.14511,2.6814 -5.89004,3.56917 -8.57143,5.71429 -8.31231,6.64984 -4.00346,5.37559 -11.42857,14.28571 -2.58674,3.10409 -6.04728,5.41624 -8.57143,8.57143 -1.33034,1.66293 -1.90476,3.80952 -2.85714,5.71429 -0.95238,1.90476 -1.90476,3.80952 -2.85714,5.71428"
           id="path2985"
           inkscape:connector-curvature="0" />
        <path
           style="fill:none;stroke:#ff0000;stroke-width:1px;stroke-linecap:butt;stroke-linejoin:miter;stroke-opacity:1"
           d="m 197.14286,566.6479 c 10.47619,0 20.95238,0 31.42857,0 15.92251,0 22.80166,2.10818 37.14286,-5.71429 5.35359,-2.92014 9.47207,-7.68463 14.28571,-11.42857 3.75882,-2.92353 7.55365,-5.80363 11.42857,-8.57143 2.79425,-1.99589 5.89004,-3.56917 8.57143,-5.71428 2.10346,-1.68277 3.40442,-4.32837 5.71429,-5.71429 2.5825,-1.5495 5.80324,-1.67078 8.57142,-2.85714 31.8186,-15.9093 -8.26401,3.099 22.85715,-8.57143 3.98799,-1.4955 7.51377,-4.03652 11.42857,-5.71429 2.76818,-1.18636 5.71428,-1.90476 8.57143,-2.85714 2.85714,-0.95238 5.64965,-2.1267 8.57143,-2.85714 2.41887,-0.60472 8.46209,0 11.42857,0 0.95238,0 2.62615,-0.92395 2.85714,0 0.92395,3.69578 0,7.61904 0,11.42857 0,2.85714 0,5.71428 0,8.57143 0,2.85714 1.06112,5.91863 0,8.57143 -3.42523,8.56306 -6.30507,3.44792 -11.42857,8.57142 -1.50585,1.50585 -1.57939,4.01062 -2.85714,5.71429 -3.23249,4.30998 -8.65674,6.80884 -11.42858,11.42857 -1.5495,2.58251 -1.30764,5.98892 -2.85714,8.57143 -1.38592,2.30986 -4.09804,3.55929 -5.71428,5.71429 -6.76376,9.01834 2.14717,3.5671 -8.57143,14.28571 -1.50585,1.50585 -4.20844,1.3513 -5.71429,2.85714 -1.50585,1.50585 -1.57939,4.01062 -2.85714,5.71429 -1.61625,2.15499 -3.80953,3.80952 -5.71429,5.71428 -0.95238,0.95238 -1.73648,2.11004 -2.85714,2.85715 -1.77192,1.18128 -3.94236,1.67586 -5.71429,2.85714 -2.24132,1.49422 -3.15878,4.86245 -5.71428,5.71429 -1.80702,0.60233 -4.12943,-1.05658 -5.71429,0 -1.77192,1.18128 -1.35129,4.20843 -2.85714,5.71428 -1.50585,1.50585 -4.20844,1.3513 -5.71429,2.85714 -1.50584,1.50585 -1.90476,3.80953 -2.85714,5.71429 -0.95238,1.90476 -2.18371,3.69398 -2.85714,5.71429 -0.53733,1.61199 0,6.69397 0,8.57142 0,0.95238 0,1.90477 0,2.85715 0,0.95238 -0.67344,2.1837 0,2.85714 0.67343,0.67343 1.90476,0 2.85714,0 2.85714,0 5.71429,0 8.57143,0 6.66667,0 13.33333,0 20,0 0.95238,0 1.95363,0.30117 2.85714,0 2.02031,-0.67344 4.01062,-1.57939 5.71429,-2.85714 2.15499,-1.61625 3.80952,-3.80953 5.71428,-5.71429 5.71429,-5.71428 11.00714,-11.88367 17.14286,-17.14286 5.21436,-4.46945 11.86693,-7.03196 17.14286,-11.42857 3.10408,-2.58673 5.71428,-5.71428 8.57143,-8.57143 1.90476,-1.90476 4.09804,-3.55929 5.71428,-5.71428 1.27776,-1.70367 1.57939,-4.01062 2.85715,-5.71429 1.61624,-2.15499 4.32836,-3.40442 5.71428,-5.71428 1.5495,-2.58251 1.30764,-5.98893 2.85714,-8.57143 1.38592,-2.30986 4.37782,-3.37547 5.71429,-5.71429 2.54456,-4.45298 3.22356,-9.8024 5.71429,-14.28571 2.31258,-4.16266 5.84065,-7.52747 8.57142,-11.42857 3.93838,-5.62626 7.38918,-11.58869 11.42858,-17.14286 8.34119,-11.46915 16.35443,-18.42316 22.85714,-31.42857 3.69835,-7.39671 2.85714,-15.04096 2.85714,-22.85714 0,-0.95239 0,-1.90477 0,-2.85715 0,-0.95238 0.85184,-2.43122 0,-2.85714 -1.21433,-0.60716 -11.89143,0 -14.28571,0"
           id="path2987"
           inkscape:connector-curvature="0" />
      </g>
      <text
         sodipodi:linespacing="125%"
         id="text2986"
         y="393.74274"
         x="333.35034"
         style="font-size:40px;font-style:normal;font-weight:normal;line-height:125%;letter-spacing:0px;word-spacing:0px;writing-mode:tb-rl;fill-opacity:1;stroke:#0000ff;font-family:Sans"
         xml:space="preserve"><tspan
           y="333.35034"
           x="393.74274"
           id="tspan2988"
           sodipodi:role="line">$template1$</tspan></text>
    </g>
  </g>
</svg>
